<svg height="1054" width="720" xmlns="http://www.w3.org/2000/svg">
<rect height="1054" fill="#555" width="720"></rect>
<text fill="#7f7" font-family="Courier New" font-size="12" xml:space="preserve">
<tspan x="10" y="26"></tspan>
<tspan x="10" y="42">&gt; npmtest-grunt-autoprefixer@0.0.1 test /home/travis/build/npmtest/node-npmtest-grunt-autoprefix\</tspan>
<tspan x="10" y="58">er</tspan>
<tspan x="10" y="74">&gt; (set -e; export PORT=$(utility2 shServerPortRandom); utility2 test test.js)</tspan>
<tspan x="10" y="90"></tspan>
<tspan x="10" y="106"></tspan>
<tspan x="10" y="122">[MODE_BUILD=npmTest] - 2017-04-11T13:28:37Z - npm-testing /home/travis/build/npmtest/node-npmtes\</tspan>
<tspan x="10" y="138">t-grunt-autoprefixer</tspan>
<tspan x="10" y="154"></tspan>
<tspan x="10" y="170">merging file:///home/travis/build/npmtest/node-npmtest-grunt-autoprefixer/tmp/build/test-report.\</tspan>
<tspan x="10" y="186">json to test-report</tspan>
<tspan x="10" y="202">&gt; server listening on http-port 40020</tspan>
<tspan x="10" y="218">[node test-case 1 of 6 passed] - testCase_buildLib_default</tspan>
<tspan x="10" y="234">[node test-case 2 of 6 passed] - testCase_buildReadme_default</tspan>
<tspan x="10" y="250">[node test-case 3 of 6 passed] - testCase_buildTest_default</tspan>
<tspan x="10" y="266"></tspan>
<tspan x="10" y="282">browserTest - created electron entry-page /home/travis/build/npmtest/node-npmtest-grunt-autopref\</tspan>
<tspan x="10" y="298">ixer/tmp/electron.15b5d33adbb0.1d7d459188f5d.html</tspan>
<tspan x="10" y="314"></tspan>
<tspan x="10" y="330">[node test-case 4 of 6 passed] - testCase_buildApidoc_default</tspan>
<tspan x="10" y="346">Xlib:  extension "RANDR" missing on display ":99.0".</tspan>
<tspan x="10" y="362">merging file:///home/travis/build/npmtest/node-npmtest-grunt-autoprefixer/tmp/build/test-report.\</tspan>
<tspan x="10" y="378">json to test-report</tspan>
<tspan x="10" y="394">Xlib:  extension "RANDR" missing on display ":99.0".</tspan>
<tspan x="10" y="410">[6113:0411/132840:WARNING:audio_manager.cc(314)] Multiple instances of AudioManager detected</tspan>
<tspan x="10" y="426">[6113:0411/132840:WARNING:audio_manager.cc(275)] Multiple instances of AudioManager detected</tspan>
<tspan x="10" y="442">[6131:0411/132840:ERROR:sandbox_linux.cc(343)] InitializeSandbox() called with multiple threads \</tspan>
<tspan x="10" y="458">in process gpu-process. </tspan>
<tspan x="10" y="474">[6113:0411/132840:ERROR:browser_gpu_channel_host_factory.cc(131)] Failed to create channel.</tspan>
<tspan x="10" y="490">&gt; </tspan>
<tspan x="10" y="506">browserTest - opened url http://127.0.0.1:40020?modeTest=1</tspan>
<tspan x="10" y="522"></tspan>
<tspan x="10" y="538">server listening on http-port 64628</tspan>
<tspan x="10" y="554">[node test-case 5 of 6 passed] - testCase_buildApp_default</tspan>
<tspan x="10" y="570"></tspan>
<tspan x="10" y="586">browserTest - created screenCapture file:///home/travis/build/npmtest/node-npmtest-grunt-autopre\</tspan>
<tspan x="10" y="602">fixer/tmp/build/screenCapture.npmTest.browser.%2F.png</tspan>
<tspan x="10" y="618"></tspan>
<tspan x="10" y="634">browserTest - created screenCapture file:///home/travis/build/npmtest/node-npmtest-grunt-autopre\</tspan>
<tspan x="10" y="650">fixer/tmp/build/screenCapture.npmTest.browser.%2F.html</tspan>
<tspan x="10" y="666"></tspan>
<tspan x="10" y="682">browserTest - exit-code 0 - http://127.0.0.1:40020?modeTest=1</tspan>
<tspan x="10" y="698"></tspan>
<tspan x="10" y="714"></tspan>
<tspan x="10" y="730">browserTest - merging test-report from /home/travis/build/npmtest/node-npmtest-grunt-autoprefixe\</tspan>
<tspan x="10" y="746">r/tmp/test-report.npmTest.browser.%2F.json</tspan>
<tspan x="10" y="762"></tspan>
<tspan x="10" y="778">[node test-case 6 of 6 passed] - testCase_webpage_default</tspan>
<tspan x="10" y="794">merging file:///home/travis/build/npmtest/node-npmtest-grunt-autoprefixer/tmp/build/test-report.\</tspan>
<tspan x="10" y="810">json to test-report</tspan>
<tspan x="10" y="826"></tspan>
<tspan x="10" y="842">-------------------------------------------------------</tspan>
<tspan x="10" y="858">| test-report - buildApp - node - linux v6.10.2 - 2017-04-11T13:27:53.282Z</tspan>
<tspan x="10" y="874">|   61251 ms            0 failed        6 passed      |</tspan>
<tspan x="10" y="890">-------------------------------------------------------</tspan>
<tspan x="10" y="906"></tspan>
<tspan x="10" y="922">created test-report file:///home/travis/build/npmtest/node-npmtest-grunt-autoprefixer/tmp/build/\</tspan>
<tspan x="10" y="938">test-report.html</tspan>
<tspan x="10" y="954"></tspan>
<tspan x="10" y="970"></tspan>
<tspan x="10" y="986">npmTest - 0 failed tests</tspan>
<tspan x="10" y="1002"></tspan>
<tspan x="10" y="1018"></tspan>
<tspan x="10" y="1034">[MODE_BUILD=npmTest] - 2017-04-11T13:28:57Z - EXIT_CODE - 0</tspan>
</text>
</svg>
